<?xml version="1.0" encoding="UTF-8" standalone="no"?><svg xmlns="http://www.w3.org/2000/svg" xmlns:xlink="http://www.w3.org/1999/xlink" contentScriptType="application/ecmascript" contentStyleType="text/css" height="222px" preserveAspectRatio="none" style="width:192px;height:222px;" version="1.1" viewBox="0 0 192 222" width="192px" zoomAndPan="magnify"><defs><filter height="300%" id="f1gg8nmrixnqu4" width="300%" x="-1" y="-1"><feGaussianBlur result="blurOut" stdDeviation="2.0"/><feColorMatrix in="blurOut" result="blurOut2" type="matrix" values="0 0 0 0 0 0 0 0 0 0 0 0 0 0 0 0 0 0 .4 0"/><feOffset dx="4.0" dy="4.0" in="blurOut2" result="blurOut3"/><feBlend in="SourceGraphic" in2="blurOut3" mode="normal"/></filter></defs><g><!--cluster com.google.gson--><polygon fill="#FFFFFF" filter="url(#f1gg8nmrixnqu4)" points="14,16,140,16,147,41.0679,152,41.0679,152,102,14,102,14,16" style="stroke: #000000; stroke-width: 1.5;"/><line style="stroke: #000000; stroke-width: 1.5;" x1="14" x2="147" y1="41.0679" y2="41.0679"/><text fill="#000000" font-family="sans-serif" font-size="14" font-weight="bold" lengthAdjust="spacingAndGlyphs" textLength="120" x="18" y="32.9659">com.google.gson</text><!--cluster de.thro.inf.prg3.a06--><polygon fill="#FFFFFF" filter="url(#f1gg8nmrixnqu4)" points="17,124,160,124,167,149.0679,170,149.0679,170,210,17,210,17,124" style="stroke: #000000; stroke-width: 1.5;"/><line style="stroke: #000000; stroke-width: 1.5;" x1="17" x2="167" y1="149.0679" y2="149.0679"/><text fill="#000000" font-family="sans-serif" font-size="14" font-weight="bold" lengthAdjust="spacingAndGlyphs" textLength="137" x="21" y="140.9659">de.thro.inf.prg3.a06</text><!--class TypeAdapter--><rect fill="#FEFECE" filter="url(#f1gg8nmrixnqu4)" height="48" id="TypeAdapter" style="stroke: #A80036; stroke-width: 1.5;" width="121" x="22.5" y="46"/><ellipse cx="37.5" cy="62" fill="#A9DCDF" rx="11" ry="11" style="stroke: #A80036; stroke-width: 1.0;"/><path d="M40.4531,67.25 L39.5781,64.3594 L35.1563,64.3594 L34.2656,67.25 L31.5,67.25 L35.7813,55.0625 L38.9219,55.0625 L43.2344,67.25 L40.4531,67.25 Z M38.9688,62.2031 L38.0781,59.375 Q38,59.0938 37.8594,58.6484 Q37.7188,58.2031 37.5859,57.7422 Q37.4531,57.2813 37.3594,56.9531 Q37.2813,57.2813 37.1328,57.7891 Q36.9844,58.2969 36.8594,58.7422 Q36.7344,59.1875 36.6719,59.375 L35.7969,62.2031 L38.9688,62.2031 Z "/><ellipse cx="56.5" cy="61.5" fill="#84BE84" rx="3" ry="3" style="stroke: #038048; stroke-width: 1.0;"/><text fill="#000000" font-family="sans-serif" font-size="12" font-style="italic" lengthAdjust="spacingAndGlyphs" textLength="68" x="62.5" y="66.656">TypeAdapter</text><rect fill="#FFFFFF" height="18.3441" style="stroke: #000000; stroke-width: 1.0; stroke-dasharray: 2.0,2.0;" width="8" x="138.5" y="43"/><text fill="#000000" font-family="sans-serif" font-size="12" font-style="italic" lengthAdjust="spacingAndGlyphs" textLength="6" x="139.5" y="56.8281">T</text><line style="stroke: #A80036; stroke-width: 1.5;" x1="23.5" x2="142.5" y1="78" y2="78"/><line style="stroke: #A80036; stroke-width: 1.5;" x1="23.5" x2="142.5" y1="86" y2="86"/><!--class JokeAdapter--><rect fill="#FEFECE" filter="url(#f1gg8nmrixnqu4)" height="48" id="JokeAdapter" style="stroke: #A80036; stroke-width: 1.5;" width="111" x="27.5" y="154"/><ellipse cx="42.5" cy="170" fill="#ADD1B2" rx="11" ry="11" style="stroke: #A80036; stroke-width: 1.0;"/><path d="M42.1875,166.3281 Q40.7031,166.3281 39.9219,167.4375 Q39.1406,168.5469 39.1406,170.4688 Q39.1406,172.4063 39.8594,173.4688 Q40.5781,174.5313 42.1875,174.5313 Q42.9219,174.5313 43.6641,174.3594 Q44.4063,174.1875 45.2813,173.875 L45.2813,176.0469 Q44.4688,176.3594 43.6875,176.5156 Q42.9063,176.6719 41.9375,176.6719 Q40.0781,176.6719 38.8594,175.8984 Q37.6406,175.125 37.0625,173.7188 Q36.4844,172.3125 36.4844,170.4531 Q36.4844,168.6094 37.1484,167.2031 Q37.8125,165.7969 39.0781,164.9922 Q40.3438,164.1875 42.1875,164.1875 Q43.0781,164.1875 43.9922,164.4219 Q44.9063,164.6563 45.7344,165.0469 L44.9063,167.1406 Q44.2188,166.8125 43.5313,166.5703 Q42.8438,166.3281 42.1875,166.3281 Z "/><ellipse cx="61.5" cy="169.5" fill="#84BE84" rx="3" ry="3" style="stroke: #038048; stroke-width: 1.0;"/><text fill="#000000" font-family="sans-serif" font-size="12" lengthAdjust="spacingAndGlyphs" textLength="68" x="67.5" y="174.656">JokeAdapter</text><line style="stroke: #A80036; stroke-width: 1.5;" x1="28.5" x2="137.5" y1="186" y2="186"/><line style="stroke: #A80036; stroke-width: 1.5;" x1="28.5" x2="137.5" y1="194" y2="194"/><!--link TypeAdapter to JokeAdapter--><path d="M83,114.2911 C83,127.8171 83,142.1835 83,153.8436 " fill="none" id="TypeAdapter-JokeAdapter" style="stroke: #A80036; stroke-width: 1.0;"/><polygon fill="none" points="76.0001,114.2373,83,94.2373,90.0001,114.2373,76.0001,114.2373" style="stroke: #A80036; stroke-width: 1.0;"/><!--
@startuml GsonSpec

package com.google.gson {
    +abstract class TypeAdapter<T> {
    }
}


package de.thro.inf.prg3.a06 {
    +class JokeAdapter extends TypeAdapter {
    }
}

@enduml

PlantUML version 1.2018.12(Sun Oct 21 12:15:15 CEST 2018)
(GPL source distribution)
Java Runtime: OpenJDK Runtime Environment
JVM: OpenJDK 64-Bit Server VM
Java Version: 1.8.0_192-b26
Operating System: Linux
OS Version: 4.18.16-arch1-1-ARCH
Default Encoding: UTF-8
Language: en
Country: US
--></g></svg>