<?xml version="1.0" encoding="UTF-8" standalone="no"?><svg xmlns="http://www.w3.org/2000/svg" xmlns:xlink="http://www.w3.org/1999/xlink" contentScriptType="application/ecmascript" contentStyleType="text/css" height="260px" preserveAspectRatio="none" style="width:202px;height:260px;" version="1.1" viewBox="0 0 202 260" width="202px" zoomAndPan="magnify"><defs><filter height="300%" id="fuppbnnrm4fn3" width="300%" x="-1" y="-1"><feGaussianBlur result="blurOut" stdDeviation="2.0"/><feColorMatrix in="blurOut" result="blurOut2" type="matrix" values="0 0 0 0 0 0 0 0 0 0 0 0 0 0 0 0 0 0 .4 0"/><feOffset dx="4.0" dy="4.0" in="blurOut2" result="blurOut3"/><feBlend in="SourceGraphic" in2="blurOut3" mode="normal"/></filter></defs><g><!--cluster com.google.gson--><polygon fill="#FFFFFF" filter="url(#fuppbnnrm4fn3)" points="22,24,149,24,156,47.6094,178,47.6094,178,124,22,124,22,24" style="stroke: #000000; stroke-width: 1.5;"/><line style="stroke: #000000; stroke-width: 1.5;" x1="22" x2="156" y1="47.6094" y2="47.6094"/><text fill="#000000" font-family="sans-serif" font-size="14" font-weight="bold" lengthAdjust="spacingAndGlyphs" textLength="121" x="26" y="40.5332">com.google.gson</text><!--cluster de.fhro.inf.prg3.a06--><polygon fill="#FFFFFF" filter="url(#fuppbnnrm4fn3)" points="27,148,170,148,177,171.6094,180,171.6094,180,248,27,248,27,148" style="stroke: #000000; stroke-width: 1.5;"/><line style="stroke: #000000; stroke-width: 1.5;" x1="27" x2="177" y1="171.6094" y2="171.6094"/><text fill="#000000" font-family="sans-serif" font-size="14" font-weight="bold" lengthAdjust="spacingAndGlyphs" textLength="137" x="31" y="164.5332">de.fhro.inf.prg3.a06</text><!--class TypeAdapter--><rect fill="#FEFECE" filter="url(#fuppbnnrm4fn3)" height="48" id="TypeAdapter" style="stroke: #A80036; stroke-width: 1.5;" width="124" x="38" y="60"/><ellipse cx="53" cy="76" fill="#A9DCDF" rx="11" ry="11" style="stroke: #A80036; stroke-width: 1.0;"/><path d="M55.1875,77.7656 L51.0469,77.7656 L50.625,78.7969 L51.0469,78.7969 Q51.6563,78.7969 51.9219,79.0313 Q52.1875,79.2656 52.1875,79.6563 Q52.1875,80.0313 51.9219,80.2656 Q51.6563,80.5 51.0469,80.5 L48.75,80.5 Q48.1406,80.5 47.8828,80.2656 Q47.625,80.0313 47.625,79.6406 Q47.625,79.2656 47.8984,79.0234 Q48.1719,78.7813 48.7969,78.7969 L51.4688,72.1406 L50.3594,72.1406 Q49.75,72.1406 49.4844,71.9063 Q49.2188,71.6719 49.2188,71.2813 Q49.2188,70.9063 49.4844,70.6719 Q49.75,70.4375 50.3594,70.4375 L54.0313,70.4375 L57.4219,78.7969 Q58.0156,78.7969 58.2031,78.9375 Q58.5938,79.2031 58.5938,79.6563 Q58.5938,80.0313 58.3359,80.2656 Q58.0781,80.5 57.4688,80.5 L55.1719,80.5 Q54.5625,80.5 54.2969,80.2656 Q54.0313,80.0313 54.0313,79.6406 Q54.0313,79.2656 54.2969,79.0313 Q54.5625,78.7969 55.1719,78.7969 L55.5938,78.7969 L55.1875,77.7656 Z M54.4688,76.0625 L53.1094,72.6875 L51.7344,76.0625 L54.4688,76.0625 Z "/><ellipse cx="72" cy="75.5" fill="#84BE84" rx="3" ry="3" style="stroke: #038048; stroke-width: 1.0;"/><text fill="#000000" font-family="sans-serif" font-size="12" font-style="italic" lengthAdjust="spacingAndGlyphs" textLength="70" x="78" y="80.9102">TypeAdapter</text><rect fill="#FFFFFF" height="17.0938" style="stroke: #000000; stroke-width: 1.0; stroke-dasharray: 2.0,2.0;" width="9" x="156" y="57"/><text fill="#000000" font-family="sans-serif" font-size="12" font-style="italic" lengthAdjust="spacingAndGlyphs" textLength="7" x="157" y="70.457">T</text><line style="stroke: #A80036; stroke-width: 1.5;" x1="39" x2="161" y1="92" y2="92"/><line style="stroke: #A80036; stroke-width: 1.5;" x1="39" x2="161" y1="100" y2="100"/><!--class JokeAdapter--><rect fill="#FEFECE" filter="url(#fuppbnnrm4fn3)" height="48" id="JokeAdapter" style="stroke: #A80036; stroke-width: 1.5;" width="111" x="44.5" y="184"/><ellipse cx="59.5" cy="200" fill="#ADD1B2" rx="11" ry="11" style="stroke: #A80036; stroke-width: 1.0;"/><path d="M62.2656,195.875 Q62.4219,195.6563 62.6094,195.5469 Q62.7969,195.4375 63.0156,195.4375 Q63.3906,195.4375 63.625,195.6953 Q63.8594,195.9531 63.8594,196.5625 L63.8594,198.0156 Q63.8594,198.625 63.625,198.8906 Q63.3906,199.1563 63.0156,199.1563 Q62.6719,199.1563 62.4688,198.9531 Q62.2656,198.7656 62.1563,198.25 Q62.1094,197.8906 61.9219,197.7031 Q61.5938,197.3281 60.9844,197.1094 Q60.375,196.8906 59.75,196.8906 Q58.9844,196.8906 58.3516,197.2188 Q57.7188,197.5469 57.2266,198.2969 Q56.7344,199.0469 56.7344,200.0781 L56.7344,201.1719 Q56.7344,202.4063 57.625,203.2266 Q58.5156,204.0469 60.1094,204.0469 Q61.0469,204.0469 61.7031,203.7969 Q62.0938,203.6406 62.5156,203.2031 Q62.7813,202.9375 62.9297,202.8594 Q63.0781,202.7813 63.2813,202.7813 Q63.6094,202.7813 63.8672,203.0391 Q64.125,203.2969 64.125,203.6406 Q64.125,203.9844 63.7813,204.3906 Q63.2813,204.9688 62.4844,205.2969 Q61.4063,205.75 60.1094,205.75 Q58.5938,205.75 57.3906,205.125 Q56.4063,204.625 55.7188,203.5547 Q55.0313,202.4844 55.0313,201.2031 L55.0313,200.0469 Q55.0313,198.7188 55.6484,197.5703 Q56.2656,196.4219 57.3594,195.8047 Q58.4531,195.1875 59.6875,195.1875 Q60.4219,195.1875 61.0703,195.3516 Q61.7188,195.5156 62.2656,195.875 Z "/><ellipse cx="78.5" cy="199.5" fill="#84BE84" rx="3" ry="3" style="stroke: #038048; stroke-width: 1.0;"/><text fill="#000000" font-family="sans-serif" font-size="12" lengthAdjust="spacingAndGlyphs" textLength="68" x="84.5" y="204.9102">JokeAdapter</text><line style="stroke: #A80036; stroke-width: 1.5;" x1="45.5" x2="154.5" y1="216" y2="216"/><line style="stroke: #A80036; stroke-width: 1.5;" x1="45.5" x2="154.5" y1="224" y2="224"/><!--link TypeAdapter to JokeAdapter--><path d="M100,128.275 C100,147.008 100,168.1846 100,183.8521 " fill="none" id="TypeAdapter-JokeAdapter" style="stroke: #A80036; stroke-width: 1.0;"/><polygon fill="none" points="93.0001,128.234,100,108.234,107,128.234,93.0001,128.234" style="stroke: #A80036; stroke-width: 1.0;"/><!--
@startuml GsonSpec

package com.google.gson {
    +abstract class TypeAdapter<T> {
    }
}

package de.fhro.inf.prg3.a06 {
    +class JokeAdapter extends TypeAdapter {
    }
}

@enduml

PlantUML version 1.2018.00(Thu Jan 04 20:42:56 CET 2018)
(GPL source distribution)
Java Runtime: Java(TM) SE Runtime Environment
JVM: Java HotSpot(TM) 64-Bit Server VM
Java Version: 9+181
Operating System: Windows 10
OS Version: 10.0
Default Encoding: UTF-8
Language: en
Country: US
--></g></svg>