<?xml version="1.0" encoding="UTF-8" standalone="no"?><svg xmlns="http://www.w3.org/2000/svg" xmlns:xlink="http://www.w3.org/1999/xlink" contentScriptType="application/ecmascript" contentStyleType="text/css" height="249px" preserveAspectRatio="none" style="width:250px;height:249px;" version="1.1" viewBox="0 0 250 249" width="250px" zoomAndPan="magnify"><defs><filter height="300%" id="favmfjzwq34bc" width="300%" x="-1" y="-1"><feGaussianBlur result="blurOut" stdDeviation="2.0"/><feColorMatrix in="blurOut" result="blurOut2" type="matrix" values="0 0 0 0 0 0 0 0 0 0 0 0 0 0 0 0 0 0 .4 0"/><feOffset dx="4.0" dy="4.0" in="blurOut2" result="blurOut3"/><feBlend in="SourceGraphic" in2="blurOut3" mode="normal"/></filter></defs><g><!--cluster de.thro.inf.prg3.a06.model--><polygon fill="#FFFFFF" filter="url(#favmfjzwq34bc)" points="14,16,205,16,212,41.0679,228,41.0679,228,237,14,237,14,16" style="stroke: #000000; stroke-width: 1.5;"/><line style="stroke: #000000; stroke-width: 1.5;" x1="14" x2="212" y1="41.0679" y2="41.0679"/><text fill="#000000" font-family="sans-serif" font-size="14" font-weight="bold" lengthAdjust="spacingAndGlyphs" textLength="185" x="18" y="32.9659">de.thro.inf.prg3.a06.model</text><!--class Joke--><rect fill="#FEFECE" filter="url(#favmfjzwq34bc)" height="182.837" id="Joke" style="stroke: #A80036; stroke-width: 1.5;" width="198" x="22" y="46"/><ellipse cx="99.75" cy="62" fill="#ADD1B2" rx="11" ry="11" style="stroke: #A80036; stroke-width: 1.0;"/><path d="M99.4375,58.3281 Q97.9531,58.3281 97.1719,59.4375 Q96.3906,60.5469 96.3906,62.4688 Q96.3906,64.4063 97.1094,65.4688 Q97.8281,66.5313 99.4375,66.5313 Q100.1719,66.5313 100.9141,66.3594 Q101.6563,66.1875 102.5313,65.875 L102.5313,68.0469 Q101.7188,68.3594 100.9375,68.5156 Q100.1563,68.6719 99.1875,68.6719 Q97.3281,68.6719 96.1094,67.8984 Q94.8906,67.125 94.3125,65.7188 Q93.7344,64.3125 93.7344,62.4531 Q93.7344,60.6094 94.3984,59.2031 Q95.0625,57.7969 96.3281,56.9922 Q97.5938,56.1875 99.4375,56.1875 Q100.3281,56.1875 101.2422,56.4219 Q102.1563,56.6563 102.9844,57.0469 L102.1563,59.1406 Q101.4688,58.8125 100.7813,58.5703 Q100.0938,58.3281 99.4375,58.3281 Z "/><ellipse cx="125.25" cy="61.5" fill="#84BE84" rx="3" ry="3" style="stroke: #038048; stroke-width: 1.0;"/><text fill="#000000" font-family="sans-serif" font-size="12" lengthAdjust="spacingAndGlyphs" textLength="23" x="131.25" y="66.656">Joke</text><line style="stroke: #A80036; stroke-width: 1.5;" x1="23" x2="219" y1="78" y2="78"/><rect fill="none" height="6" style="stroke: #C82930; stroke-width: 1.0;" width="6" x="30" y="87.9909"/><text fill="#000000" font-family="sans-serif" font-size="11" lengthAdjust="spacingAndGlyphs" textLength="62" x="42" y="93.7589">number: int</text><rect fill="none" height="6" style="stroke: #C82930; stroke-width: 1.0;" width="6" x="30" y="102.9728"/><text fill="#000000" font-family="sans-serif" font-size="11" lengthAdjust="spacingAndGlyphs" textLength="78" x="42" y="108.7408">content: String</text><rect fill="none" height="6" style="stroke: #C82930; stroke-width: 1.0;" width="6" x="30" y="117.9547"/><text fill="#000000" font-family="sans-serif" font-size="11" lengthAdjust="spacingAndGlyphs" textLength="83" x="42" y="123.7227">rubrics: String[]</text><line style="stroke: #A80036; stroke-width: 1.5;" x1="23" x2="219" y1="130.9457" y2="130.9457"/><ellipse cx="33" cy="143.9366" fill="#84BE84" rx="3" ry="3" style="stroke: #038048; stroke-width: 1.0;"/><text fill="#000000" font-family="sans-serif" font-size="11" lengthAdjust="spacingAndGlyphs" textLength="86" x="42" y="146.7046">getNumber(): int</text><ellipse cx="33" cy="158.9185" fill="#84BE84" rx="3" ry="3" style="stroke: #038048; stroke-width: 1.0;"/><text fill="#000000" font-family="sans-serif" font-size="11" lengthAdjust="spacingAndGlyphs" textLength="155" x="42" y="161.6865">setNumber(number: int): void</text><ellipse cx="33" cy="173.9004" fill="#84BE84" rx="3" ry="3" style="stroke: #038048; stroke-width: 1.0;"/><text fill="#000000" font-family="sans-serif" font-size="11" lengthAdjust="spacingAndGlyphs" textLength="103" x="42" y="176.6684">getContent(): String</text><ellipse cx="33" cy="188.8823" fill="#84BE84" rx="3" ry="3" style="stroke: #038048; stroke-width: 1.0;"/><text fill="#000000" font-family="sans-serif" font-size="11" lengthAdjust="spacingAndGlyphs" textLength="170" x="42" y="191.6502">setContent(content: String): void</text><ellipse cx="33" cy="203.8642" fill="#84BE84" rx="3" ry="3" style="stroke: #038048; stroke-width: 1.0;"/><text fill="#000000" font-family="sans-serif" font-size="11" lengthAdjust="spacingAndGlyphs" textLength="108" x="42" y="206.6321">getRubrics(): String[]</text><ellipse cx="33" cy="218.846" fill="#84BE84" rx="3" ry="3" style="stroke: #038048; stroke-width: 1.0;"/><text fill="#000000" font-family="sans-serif" font-size="11" lengthAdjust="spacingAndGlyphs" textLength="172" x="42" y="221.614">setRubrics(rubrics: String[]): void</text><!--
@startuml ModelSpec
package de.thro.inf.prg3.a06.model {
    +class Joke {

        -number: int
        -content: String
        -rubrics: String[]

        +getNumber(): int
        +setNumber(number: int): void
        +getContent(): String
        +setContent(content: String): void
        +getRubrics(): String[]
        +setRubrics(rubrics: String[]): void
    }
}
@enduml

PlantUML version 1.2018.12(Sun Oct 21 12:15:15 CEST 2018)
(GPL source distribution)
Java Runtime: OpenJDK Runtime Environment
JVM: OpenJDK 64-Bit Server VM
Java Version: 1.8.0_192-b26
Operating System: Linux
OS Version: 4.18.16-arch1-1-ARCH
Default Encoding: UTF-8
Language: en
Country: US
--></g></svg>