<?xml version="1.0" encoding="UTF-8" standalone="no"?><svg xmlns="http://www.w3.org/2000/svg" xmlns:xlink="http://www.w3.org/1999/xlink" contentScriptType="application/ecmascript" contentStyleType="text/css" height="261px" preserveAspectRatio="none" style="width:262px;height:261px;" version="1.1" viewBox="0 0 262 261" width="262px" zoomAndPan="magnify"><defs><filter height="300%" id="f1q7ge2j0o5606" width="300%" x="-1" y="-1"><feGaussianBlur result="blurOut" stdDeviation="2.0"/><feColorMatrix in="blurOut" result="blurOut2" type="matrix" values="0 0 0 0 0 0 0 0 0 0 0 0 0 0 0 0 0 0 .4 0"/><feOffset dx="4.0" dy="4.0" in="blurOut2" result="blurOut3"/><feBlend in="SourceGraphic" in2="blurOut3" mode="normal"/></filter></defs><g><!--cluster de.fhro.inf.prg3.a06.model--><polygon fill="#FFFFFF" filter="url(#f1q7ge2j0o5606)" points="22,24,212,24,219,47.6094,240,47.6094,240,249,22,249,22,24" style="stroke: #000000; stroke-width: 1.5;"/><line style="stroke: #000000; stroke-width: 1.5;" x1="22" x2="219" y1="47.6094" y2="47.6094"/><text fill="#000000" font-family="sans-serif" font-size="14" font-weight="bold" lengthAdjust="spacingAndGlyphs" textLength="184" x="26" y="40.5332">de.fhro.inf.prg3.a06.model</text><!--class Joke--><rect fill="#FEFECE" filter="url(#f1q7ge2j0o5606)" height="172.5234" id="Joke" style="stroke: #A80036; stroke-width: 1.5;" width="186" x="38" y="60"/><ellipse cx="108.25" cy="76" fill="#ADD1B2" rx="11" ry="11" style="stroke: #A80036; stroke-width: 1.0;"/><path d="M111.0156,71.875 Q111.1719,71.6563 111.3594,71.5469 Q111.5469,71.4375 111.7656,71.4375 Q112.1406,71.4375 112.375,71.6953 Q112.6094,71.9531 112.6094,72.5625 L112.6094,74.0156 Q112.6094,74.625 112.375,74.8906 Q112.1406,75.1563 111.7656,75.1563 Q111.4219,75.1563 111.2188,74.9531 Q111.0156,74.7656 110.9063,74.25 Q110.8594,73.8906 110.6719,73.7031 Q110.3438,73.3281 109.7344,73.1094 Q109.125,72.8906 108.5,72.8906 Q107.7344,72.8906 107.1016,73.2188 Q106.4688,73.5469 105.9766,74.2969 Q105.4844,75.0469 105.4844,76.0781 L105.4844,77.1719 Q105.4844,78.4063 106.375,79.2266 Q107.2656,80.0469 108.8594,80.0469 Q109.7969,80.0469 110.4531,79.7969 Q110.8438,79.6406 111.2656,79.2031 Q111.5313,78.9375 111.6797,78.8594 Q111.8281,78.7813 112.0313,78.7813 Q112.3594,78.7813 112.6172,79.0391 Q112.875,79.2969 112.875,79.6406 Q112.875,79.9844 112.5313,80.3906 Q112.0313,80.9688 111.2344,81.2969 Q110.1563,81.75 108.8594,81.75 Q107.3438,81.75 106.1406,81.125 Q105.1563,80.625 104.4688,79.5547 Q103.7813,78.4844 103.7813,77.2031 L103.7813,76.0469 Q103.7813,74.7188 104.3984,73.5703 Q105.0156,72.4219 106.1094,71.8047 Q107.2031,71.1875 108.4375,71.1875 Q109.1719,71.1875 109.8203,71.3516 Q110.4688,71.5156 111.0156,71.875 Z "/><ellipse cx="133.75" cy="75.5" fill="#84BE84" rx="3" ry="3" style="stroke: #038048; stroke-width: 1.0;"/><text fill="#000000" font-family="sans-serif" font-size="12" lengthAdjust="spacingAndGlyphs" textLength="26" x="139.75" y="80.9102">Joke</text><line style="stroke: #A80036; stroke-width: 1.5;" x1="39" x2="223" y1="92" y2="92"/><rect fill="none" height="6" style="stroke: #C82930; stroke-width: 1.0;" width="6" x="46" y="101.418"/><text fill="#000000" font-family="sans-serif" font-size="11" lengthAdjust="spacingAndGlyphs" textLength="53" x="58" y="107.4189">number: int</text><rect fill="none" height="6" style="stroke: #C82930; stroke-width: 1.0;" width="6" x="46" y="115.2539"/><text fill="#000000" font-family="sans-serif" font-size="11" lengthAdjust="spacingAndGlyphs" textLength="70" x="58" y="121.2549">content: String</text><rect fill="none" height="6" style="stroke: #C82930; stroke-width: 1.0;" width="6" x="46" y="129.0898"/><text fill="#000000" font-family="sans-serif" font-size="11" lengthAdjust="spacingAndGlyphs" textLength="74" x="58" y="135.0908">rubrics: String[]</text><line style="stroke: #A80036; stroke-width: 1.5;" x1="39" x2="223" y1="141.5078" y2="141.5078"/><ellipse cx="49" cy="153.9258" fill="#84BE84" rx="3" ry="3" style="stroke: #038048; stroke-width: 1.0;"/><text fill="#000000" font-family="sans-serif" font-size="11" lengthAdjust="spacingAndGlyphs" textLength="77" x="58" y="156.9268">getNumber(): int</text><ellipse cx="49" cy="167.7617" fill="#84BE84" rx="3" ry="3" style="stroke: #038048; stroke-width: 1.0;"/><text fill="#000000" font-family="sans-serif" font-size="11" lengthAdjust="spacingAndGlyphs" textLength="139" x="58" y="170.7627">setNumber(number: int): void</text><ellipse cx="49" cy="181.5977" fill="#84BE84" rx="3" ry="3" style="stroke: #038048; stroke-width: 1.0;"/><text fill="#000000" font-family="sans-serif" font-size="11" lengthAdjust="spacingAndGlyphs" textLength="94" x="58" y="184.5986">getContent(): String</text><ellipse cx="49" cy="195.4336" fill="#84BE84" rx="3" ry="3" style="stroke: #038048; stroke-width: 1.0;"/><text fill="#000000" font-family="sans-serif" font-size="11" lengthAdjust="spacingAndGlyphs" textLength="156" x="58" y="198.4346">setContent(content: String): void</text><ellipse cx="49" cy="209.2695" fill="#84BE84" rx="3" ry="3" style="stroke: #038048; stroke-width: 1.0;"/><text fill="#000000" font-family="sans-serif" font-size="11" lengthAdjust="spacingAndGlyphs" textLength="100" x="58" y="212.2705">getRubrics(): String[]</text><ellipse cx="49" cy="223.1055" fill="#84BE84" rx="3" ry="3" style="stroke: #038048; stroke-width: 1.0;"/><text fill="#000000" font-family="sans-serif" font-size="11" lengthAdjust="spacingAndGlyphs" textLength="160" x="58" y="226.1064">setRubrics(rubrics: String[]): void</text><!--
@startuml ModelSpec
package de.fhro.inf.prg3.a06.model {
    +class Joke {

        -number: int
        -content: String
        -rubrics: String[]

        +getNumber(): int
        +setNumber(number: int): void
        +getContent(): String
        +setContent(content: String): void
        +getRubrics(): String[]
        +setRubrics(rubrics: String[]): void
    }
}
@enduml

PlantUML version 1.2018.00(Thu Jan 04 20:42:56 CET 2018)
(GPL source distribution)
Java Runtime: Java(TM) SE Runtime Environment
JVM: Java HotSpot(TM) 64-Bit Server VM
Java Version: 9+181
Operating System: Windows 10
OS Version: 10.0
Default Encoding: UTF-8
Language: en
Country: US
--></g></svg>