<?xml version="1.0" encoding="UTF-8" standalone="no"?><svg xmlns="http://www.w3.org/2000/svg" xmlns:xlink="http://www.w3.org/1999/xlink" contentScriptType="application/ecmascript" contentStyleType="text/css" height="174px" preserveAspectRatio="none" style="width:555px;height:174px;" version="1.1" viewBox="0 0 555 174" width="555px" zoomAndPan="magnify"><defs><filter height="300%" id="frmd28k2b0vdk" width="300%" x="-1" y="-1"><feGaussianBlur result="blurOut" stdDeviation="2.0"/><feColorMatrix in="blurOut" result="blurOut2" type="matrix" values="0 0 0 0 0 0 0 0 0 0 0 0 0 0 0 0 0 0 .4 0"/><feOffset dx="4.0" dy="4.0" in="blurOut2" result="blurOut3"/><feBlend in="SourceGraphic" in2="blurOut3" mode="normal"/></filter></defs><g><!--cluster de.thro.inf.prg3.a06--><polygon fill="#FFFFFF" filter="url(#frmd28k2b0vdk)" points="14,16,157,16,164,41.0679,533,41.0679,533,162,14,162,14,16" style="stroke: #000000; stroke-width: 1.5;"/><line style="stroke: #000000; stroke-width: 1.5;" x1="14" x2="164" y1="41.0679" y2="41.0679"/><text fill="#000000" font-family="sans-serif" font-size="14" font-weight="bold" lengthAdjust="spacingAndGlyphs" textLength="137" x="18" y="32.9659">de.thro.inf.prg3.a06</text><!--class ICNDBApi--><rect fill="#FEFECE" filter="url(#frmd28k2b0vdk)" height="107.9276" id="ICNDBApi" style="stroke: #A80036; stroke-width: 1.5;" width="312" x="213" y="46"/><ellipse cx="333.75" cy="62" fill="#B4A7E5" rx="11" ry="11" style="stroke: #A80036; stroke-width: 1.0;"/><path d="M336.3125,68.5 L330.7969,68.5 L330.7969,67.0313 L332.2656,66.3594 L332.2656,58.5 L330.7969,57.8281 L330.7969,56.3594 L336.3125,56.3594 L336.3125,57.8281 L334.8438,58.5 L334.8438,66.3594 L336.3125,67.0313 L336.3125,68.5 Z "/><ellipse cx="359.25" cy="61.5" fill="#84BE84" rx="3" ry="3" style="stroke: #038048; stroke-width: 1.0;"/><text fill="#000000" font-family="sans-serif" font-size="12" font-style="italic" lengthAdjust="spacingAndGlyphs" textLength="51" x="365.25" y="66.656">ICNDBApi</text><line style="stroke: #A80036; stroke-width: 1.5;" x1="214" x2="524" y1="78" y2="78"/><line style="stroke: #A80036; stroke-width: 1.5;" x1="214" x2="524" y1="86" y2="86"/><text fill="#000000" font-family="sans-serif" font-size="11" lengthAdjust="spacingAndGlyphs" textLength="148" x="219" y="101.7589">getRandomJoke(): Call&lt;Joke&gt;</text><text fill="#000000" font-family="sans-serif" font-size="11" lengthAdjust="spacingAndGlyphs" textLength="300" x="219" y="116.7408">getRandomJoke(categoriesToInclude: String[]): Call&lt;Joke&gt;</text><text fill="#000000" font-family="sans-serif" font-size="11" lengthAdjust="spacingAndGlyphs" textLength="233" x="219" y="131.7227">getRandomJokes(count: int): Call&lt;List&lt;Joke&gt;&gt;</text><text fill="#000000" font-family="sans-serif" font-size="11" lengthAdjust="spacingAndGlyphs" textLength="158" x="219" y="146.7046">getJokeById(id: int): Call&lt;Joke&gt;</text><!--class App--><rect fill="#FEFECE" filter="url(#frmd28k2b0vdk)" height="62.9819" id="App" style="stroke: #A80036; stroke-width: 1.5;" width="156" x="22" y="68.5"/><ellipse cx="79.25" cy="84.5" fill="#ADD1B2" rx="11" ry="11" style="stroke: #A80036; stroke-width: 1.0;"/><path d="M78.9375,80.8281 Q77.4531,80.8281 76.6719,81.9375 Q75.8906,83.0469 75.8906,84.9688 Q75.8906,86.9063 76.6094,87.9688 Q77.3281,89.0313 78.9375,89.0313 Q79.6719,89.0313 80.4141,88.8594 Q81.1563,88.6875 82.0313,88.375 L82.0313,90.5469 Q81.2188,90.8594 80.4375,91.0156 Q79.6563,91.1719 78.6875,91.1719 Q76.8281,91.1719 75.6094,90.3984 Q74.3906,89.625 73.8125,88.2188 Q73.2344,86.8125 73.2344,84.9531 Q73.2344,83.1094 73.8984,81.7031 Q74.5625,80.2969 75.8281,79.4922 Q77.0938,78.6875 78.9375,78.6875 Q79.8281,78.6875 80.7422,78.9219 Q81.6563,79.1563 82.4844,79.5469 L81.6563,81.6406 Q80.9688,81.3125 80.2813,81.0703 Q79.5938,80.8281 78.9375,80.8281 Z "/><ellipse cx="104.75" cy="84" fill="#84BE84" rx="3" ry="3" style="stroke: #038048; stroke-width: 1.0;"/><text fill="#000000" font-family="sans-serif" font-size="12" lengthAdjust="spacingAndGlyphs" textLength="22" x="110.75" y="89.156">App</text><line style="stroke: #A80036; stroke-width: 1.5;" x1="23" x2="177" y1="100.5" y2="100.5"/><line style="stroke: #A80036; stroke-width: 1.5;" x1="23" x2="177" y1="108.5" y2="108.5"/><ellipse cx="33" cy="121.4909" fill="#84BE84" rx="3" ry="3" style="stroke: #038048; stroke-width: 1.0;"/><text fill="#000000" font-family="sans-serif" font-size="11" lengthAdjust="spacingAndGlyphs" text-decoration="underline" textLength="130" x="42" y="124.2589">main(args: String[]): void</text><line style="stroke: #000000; stroke-width: 1.0;" x1="42" x2="172" y1="126.2589" y2="126.2589"/><!--
@startuml RetrofitAdapter

package de.thro.inf.prg3.a06 {

    +interface ICNDBApi {
        getRandomJoke(): Call<Joke>
        getRandomJoke(categoriesToInclude: String[]): Call<Joke>
        getRandomJokes(count: int): Call<List<Joke>>
        getJokeById(id: int): Call<Joke>
    }

    +class App {
        +{static} main(args: String[]): void
    }
}

@enduml

PlantUML version 1.2018.12(Sun Oct 21 12:15:15 CEST 2018)
(GPL source distribution)
Java Runtime: OpenJDK Runtime Environment
JVM: OpenJDK 64-Bit Server VM
Java Version: 1.8.0_192-b26
Operating System: Linux
OS Version: 4.18.16-arch1-1-ARCH
Default Encoding: UTF-8
Language: en
Country: US
--></g></svg>