<?xml version="1.0" encoding="UTF-8" standalone="no"?><svg xmlns="http://www.w3.org/2000/svg" xmlns:xlink="http://www.w3.org/1999/xlink" contentScriptType="application/ecmascript" contentStyleType="text/css" height="191px" preserveAspectRatio="none" style="width:545px;height:191px;" version="1.1" viewBox="0 0 545 191" width="545px" zoomAndPan="magnify"><defs><filter height="300%" id="fw665wwohuzee" width="300%" x="-1" y="-1"><feGaussianBlur result="blurOut" stdDeviation="2.0"/><feColorMatrix in="blurOut" result="blurOut2" type="matrix" values="0 0 0 0 0 0 0 0 0 0 0 0 0 0 0 0 0 0 .4 0"/><feOffset dx="4.0" dy="4.0" in="blurOut2" result="blurOut3"/><feBlend in="SourceGraphic" in2="blurOut3" mode="normal"/></filter></defs><g><!--cluster de.fhro.inf.prg3.a06--><polygon fill="#FFFFFF" filter="url(#fw665wwohuzee)" points="22,24,165,24,172,47.6094,523,47.6094,523,179,22,179,22,24" style="stroke: #000000; stroke-width: 1.5;"/><line style="stroke: #000000; stroke-width: 1.5;" x1="22" x2="172" y1="47.6094" y2="47.6094"/><text fill="#000000" font-family="sans-serif" font-size="14" font-weight="bold" lengthAdjust="spacingAndGlyphs" textLength="137" x="26" y="40.5332">de.fhro.inf.prg3.a06</text><!--class ICNDBApi--><rect fill="#FEFECE" filter="url(#fw665wwohuzee)" height="103.3438" id="ICNDBApi" style="stroke: #A80036; stroke-width: 1.5;" width="290" x="217" y="60"/><ellipse cx="323.75" cy="76" fill="#B4A7E5" rx="11" ry="11" style="stroke: #A80036; stroke-width: 1.0;"/><path d="M324.7031,72.6406 L324.7031,79.2969 L326.4219,79.2969 Q327.0313,79.2969 327.2969,79.5313 Q327.5625,79.7656 327.5625,80.1563 Q327.5625,80.5313 327.2969,80.7656 Q327.0313,81 326.4219,81 L321.2813,81 Q320.6719,81 320.4063,80.7656 Q320.1406,80.5313 320.1406,80.1406 Q320.1406,79.7656 320.4063,79.5313 Q320.6719,79.2969 321.2813,79.2969 L323,79.2969 L323,72.6406 L321.2813,72.6406 Q320.6719,72.6406 320.4063,72.4063 Q320.1406,72.1719 320.1406,71.7813 Q320.1406,71.4063 320.4063,71.1719 Q320.6719,70.9375 321.2813,70.9375 L326.4219,70.9375 Q327.0313,70.9375 327.2969,71.1719 Q327.5625,71.4063 327.5625,71.7813 Q327.5625,72.1719 327.2969,72.4063 Q327.0313,72.6406 326.4219,72.6406 L324.7031,72.6406 Z "/><ellipse cx="349.25" cy="75.5" fill="#84BE84" rx="3" ry="3" style="stroke: #038048; stroke-width: 1.0;"/><text fill="#000000" font-family="sans-serif" font-size="12" font-style="italic" lengthAdjust="spacingAndGlyphs" textLength="57" x="355.25" y="80.9102">ICNDBApi</text><line style="stroke: #A80036; stroke-width: 1.5;" x1="218" x2="506" y1="92" y2="92"/><line style="stroke: #A80036; stroke-width: 1.5;" x1="218" x2="506" y1="100" y2="100"/><text fill="#000000" font-family="sans-serif" font-size="11" lengthAdjust="spacingAndGlyphs" textLength="141" x="223" y="115.4189">getRandomJoke(): Call&lt;Joke&gt;</text><text fill="#000000" font-family="sans-serif" font-size="11" lengthAdjust="spacingAndGlyphs" textLength="278" x="223" y="129.2549">getRandomJoke(categoriesToInclude: String[]): Call&lt;Joke&gt;</text><text fill="#000000" font-family="sans-serif" font-size="11" lengthAdjust="spacingAndGlyphs" textLength="220" x="223" y="143.0908">getRandomJokes(count: int): Call&lt;List&lt;Joke&gt;&gt;</text><text fill="#000000" font-family="sans-serif" font-size="11" lengthAdjust="spacingAndGlyphs" textLength="148" x="223" y="156.9268">getJokeById(id: int): Call&lt;Joke&gt;</text><!--class App--><rect fill="#FEFECE" filter="url(#fw665wwohuzee)" height="61.8359" id="App" style="stroke: #A80036; stroke-width: 1.5;" width="144" x="38" y="80.5"/><ellipse cx="89.75" cy="96.5" fill="#ADD1B2" rx="11" ry="11" style="stroke: #A80036; stroke-width: 1.0;"/><path d="M92.5156,92.375 Q92.6719,92.1563 92.8594,92.0469 Q93.0469,91.9375 93.2656,91.9375 Q93.6406,91.9375 93.875,92.1953 Q94.1094,92.4531 94.1094,93.0625 L94.1094,94.5156 Q94.1094,95.125 93.875,95.3906 Q93.6406,95.6563 93.2656,95.6563 Q92.9219,95.6563 92.7188,95.4531 Q92.5156,95.2656 92.4063,94.75 Q92.3594,94.3906 92.1719,94.2031 Q91.8438,93.8281 91.2344,93.6094 Q90.625,93.3906 90,93.3906 Q89.2344,93.3906 88.6016,93.7188 Q87.9688,94.0469 87.4766,94.7969 Q86.9844,95.5469 86.9844,96.5781 L86.9844,97.6719 Q86.9844,98.9063 87.875,99.7266 Q88.7656,100.5469 90.3594,100.5469 Q91.2969,100.5469 91.9531,100.2969 Q92.3438,100.1406 92.7656,99.7031 Q93.0313,99.4375 93.1797,99.3594 Q93.3281,99.2813 93.5313,99.2813 Q93.8594,99.2813 94.1172,99.5391 Q94.375,99.7969 94.375,100.1406 Q94.375,100.4844 94.0313,100.8906 Q93.5313,101.4688 92.7344,101.7969 Q91.6563,102.25 90.3594,102.25 Q88.8438,102.25 87.6406,101.625 Q86.6563,101.125 85.9688,100.0547 Q85.2813,98.9844 85.2813,97.7031 L85.2813,96.5469 Q85.2813,95.2188 85.8984,94.0703 Q86.5156,92.9219 87.6094,92.3047 Q88.7031,91.6875 89.9375,91.6875 Q90.6719,91.6875 91.3203,91.8516 Q91.9688,92.0156 92.5156,92.375 Z "/><ellipse cx="115.25" cy="96" fill="#84BE84" rx="3" ry="3" style="stroke: #038048; stroke-width: 1.0;"/><text fill="#000000" font-family="sans-serif" font-size="12" lengthAdjust="spacingAndGlyphs" textLength="21" x="121.25" y="101.4102">App</text><line style="stroke: #A80036; stroke-width: 1.5;" x1="39" x2="181" y1="112.5" y2="112.5"/><line style="stroke: #A80036; stroke-width: 1.5;" x1="39" x2="181" y1="120.5" y2="120.5"/><ellipse cx="49" cy="132.918" fill="#84BE84" rx="3" ry="3" style="stroke: #038048; stroke-width: 1.0;"/><text fill="#000000" font-family="sans-serif" font-size="11" lengthAdjust="spacingAndGlyphs" text-decoration="underline" textLength="118" x="58" y="135.9189">main(args: String[]): void</text><line style="stroke: #000000; stroke-width: 1.0;" x1="58" x2="176" y1="137.9189" y2="137.9189"/><!--
@startuml RetrofitAdapter

package de.fhro.inf.prg3.a06 {

    +interface ICNDBApi {
        getRandomJoke(): Call<Joke>
        getRandomJoke(categoriesToInclude: String[]): Call<Joke>
        getRandomJokes(count: int): Call<List<Joke>>
        getJokeById(id: int): Call<Joke>
    }

    +class App {
        +{static} main(args: String[]): void
    }
}

@enduml

PlantUML version 1.2018.00(Thu Jan 04 20:42:56 CET 2018)
(GPL source distribution)
Java Runtime: Java(TM) SE Runtime Environment
JVM: Java HotSpot(TM) 64-Bit Server VM
Java Version: 9+181
Operating System: Windows 10
OS Version: 10.0
Default Encoding: UTF-8
Language: en
Country: US
--></g></svg>