<?xml version="1.0" encoding="UTF-8" standalone="no"?><svg xmlns="http://www.w3.org/2000/svg" xmlns:xlink="http://www.w3.org/1999/xlink" contentScriptType="application/ecmascript" contentStyleType="text/css" height="219px" preserveAspectRatio="none" style="width:188px;height:219px;" version="1.1" viewBox="0 0 188 219" width="188px" zoomAndPan="magnify"><defs><filter height="300%" id="f15rmfxmhwhf94" width="300%" x="-1" y="-1"><feGaussianBlur result="blurOut" stdDeviation="2.0"/><feColorMatrix in="blurOut" result="blurOut2" type="matrix" values="0 0 0 0 0 0 0 0 0 0 0 0 0 0 0 0 0 0 .4 0"/><feOffset dx="4.0" dy="4.0" in="blurOut2" result="blurOut3"/><feBlend in="SourceGraphic" in2="blurOut3" mode="normal"/></filter></defs><g><!--cluster com.google.gson--><polygon fill="#FFFFFF" filter="url(#f15rmfxmhwhf94)" points="14,16,156,16,163,38.2969,166,38.2969,166,99,14,99,14,16" style="stroke: #000000; stroke-width: 2.0;"/><line style="stroke: #000000; stroke-width: 2.0;" x1="14" x2="163" y1="38.2969" y2="38.2969"/><text fill="#000000" font-family="sans-serif" font-size="14" font-weight="bold" lengthAdjust="spacingAndGlyphs" textLength="136" x="18" y="30.9951">com.google.gson</text><!--cluster de.fhro.inf.prg3--><polygon fill="#FFFFFF" filter="url(#f15rmfxmhwhf94)" points="20,124,151,124,158,146.2969,161,146.2969,161,207,20,207,20,124" style="stroke: #000000; stroke-width: 2.0;"/><line style="stroke: #000000; stroke-width: 2.0;" x1="20" x2="158" y1="146.2969" y2="146.2969"/><text fill="#000000" font-family="sans-serif" font-size="14" font-weight="bold" lengthAdjust="spacingAndGlyphs" textLength="125" x="24" y="138.9951">de.fhro.inf.prg3</text><!--class TypeAdapter--><rect fill="#FEFECE" filter="url(#f15rmfxmhwhf94)" height="48" id="TypeAdapter" style="stroke: #A80036; stroke-width: 1.5;" width="134" x="23" y="43"/><ellipse cx="38" cy="59" fill="#A9DCDF" rx="11" ry="11" style="stroke: #A80036; stroke-width: 1.0;"/><path d="M38.1094,54.3438 L36.9531,59.4219 L39.2813,59.4219 L38.1094,54.3438 Z M36.625,52.1094 L39.6094,52.1094 L42.9688,64.5 L40.5156,64.5 L39.75,61.4375 L36.4688,61.4375 L35.7188,64.5 L33.2813,64.5 L36.625,52.1094 Z "/><ellipse cx="57" cy="58.5" fill="#84BE84" rx="3" ry="3" style="stroke: #038048; stroke-width: 1.0;"/><text fill="#000000" font-family="sans-serif" font-size="12" font-style="italic" lengthAdjust="spacingAndGlyphs" textLength="80" x="63" y="63.1543">TypeAdapter</text><rect fill="#FFFFFF" height="15.9688" style="stroke: #000000; stroke-width: 1.0; stroke-dasharray: 2.0,2.0;" width="9" x="151" y="40"/><text fill="#000000" font-family="sans-serif" font-size="12" font-style="italic" lengthAdjust="spacingAndGlyphs" textLength="7" x="152" y="52.1387">T</text><line style="stroke: #A80036; stroke-width: 1.5;" x1="24" x2="156" y1="75" y2="75"/><line style="stroke: #A80036; stroke-width: 1.5;" x1="24" x2="156" y1="83" y2="83"/><!--class JokeAdapter--><rect fill="#FEFECE" filter="url(#f15rmfxmhwhf94)" height="48" id="JokeAdapter" style="stroke: #A80036; stroke-width: 1.5;" width="119" x="30.5" y="151"/><ellipse cx="45.5" cy="167" fill="#ADD1B2" rx="11" ry="11" style="stroke: #A80036; stroke-width: 1.0;"/><path d="M48.4688,172.6406 Q47.8906,172.9375 47.25,173.0859 Q46.6094,173.2344 45.9063,173.2344 Q43.4063,173.2344 42.0859,171.5859 Q40.7656,169.9375 40.7656,166.8125 Q40.7656,163.6875 42.0859,162.0313 Q43.4063,160.375 45.9063,160.375 Q46.6094,160.375 47.2578,160.5313 Q47.9063,160.6875 48.4688,160.9844 L48.4688,163.7031 Q47.8438,163.125 47.25,162.8516 Q46.6563,162.5781 46.0313,162.5781 Q44.6875,162.5781 44,163.6484 Q43.3125,164.7188 43.3125,166.8125 Q43.3125,168.9063 44,169.9766 Q44.6875,171.0469 46.0313,171.0469 Q46.6563,171.0469 47.25,170.7734 Q47.8438,170.5 48.4688,169.9219 L48.4688,172.6406 Z "/><ellipse cx="64.5" cy="166.5" fill="#84BE84" rx="3" ry="3" style="stroke: #038048; stroke-width: 1.0;"/><text fill="#000000" font-family="sans-serif" font-size="12" lengthAdjust="spacingAndGlyphs" textLength="76" x="70.5" y="171.1543">JokeAdapter</text><line style="stroke: #A80036; stroke-width: 1.5;" x1="31.5" x2="148.5" y1="183" y2="183"/><line style="stroke: #A80036; stroke-width: 1.5;" x1="31.5" x2="148.5" y1="191" y2="191"/><!--link TypeAdapter to JokeAdapter--><path d="M90,111.2911 C90,124.8171 90,139.1835 90,150.8436 " fill="none" id="TypeAdapter-JokeAdapter" style="stroke: #A80036; stroke-width: 1.0;"/><polygon fill="none" points="83.0001,111.2373,90,91.2373,97.0001,111.2373,83.0001,111.2373" style="stroke: #A80036; stroke-width: 1.0;"/><!--
@startuml GsonSpec

package com.google.gson {
    +abstract class TypeAdapter<T> {
    }
}

package de.fhro.inf.prg3 {
    +class JokeAdapter extends TypeAdapter {
    }
}

@enduml

PlantUML version 1.2017.18(Fri Oct 06 18:56:32 CEST 2017)
(GPL source distribution)
Java Runtime: OpenJDK Runtime Environment
JVM: OpenJDK 64-Bit Server VM
Java Version: 1.8.0_144-b01
Operating System: Linux
OS Version: 4.13.11-1-ARCH
Default Encoding: UTF-8
Language: en
Country: US
--></g></svg>