<?xml version="1.0" encoding="UTF-8" standalone="no"?><svg xmlns="http://www.w3.org/2000/svg" xmlns:xlink="http://www.w3.org/1999/xlink" contentScriptType="application/ecmascript" contentStyleType="text/css" height="226px" preserveAspectRatio="none" style="width:268px;height:226px;" version="1.1" viewBox="0 0 268 226" width="268px" zoomAndPan="magnify"><defs><filter height="300%" id="f3akqaatx8e73" width="300%" x="-1" y="-1"><feGaussianBlur result="blurOut" stdDeviation="2.0"/><feColorMatrix in="blurOut" result="blurOut2" type="matrix" values="0 0 0 0 0 0 0 0 0 0 0 0 0 0 0 0 0 0 .4 0"/><feOffset dx="4.0" dy="4.0" in="blurOut2" result="blurOut3"/><feBlend in="SourceGraphic" in2="blurOut3" mode="normal"/></filter></defs><g><!--cluster de.fhro.inf.prg3.model--><polygon fill="#FFFFFF" filter="url(#f3akqaatx8e73)" points="14,16,198,16,205,38.2969,246,38.2969,246,214,14,214,14,16" style="stroke: #000000; stroke-width: 2.0;"/><line style="stroke: #000000; stroke-width: 2.0;" x1="14" x2="205" y1="38.2969" y2="38.2969"/><text fill="#000000" font-family="sans-serif" font-size="14" font-weight="bold" lengthAdjust="spacingAndGlyphs" textLength="178" x="18" y="30.9951">de.fhro.inf.prg3.model</text><!--class Joke--><rect fill="#FEFECE" filter="url(#f3akqaatx8e73)" height="163.2422" id="Joke" style="stroke: #A80036; stroke-width: 1.5;" width="215" x="22.5" y="43"/><ellipse cx="107.25" cy="59" fill="#ADD1B2" rx="11" ry="11" style="stroke: #A80036; stroke-width: 1.0;"/><path d="M110.2188,64.6406 Q109.6406,64.9375 109,65.0859 Q108.3594,65.2344 107.6563,65.2344 Q105.1563,65.2344 103.8359,63.5859 Q102.5156,61.9375 102.5156,58.8125 Q102.5156,55.6875 103.8359,54.0313 Q105.1563,52.375 107.6563,52.375 Q108.3594,52.375 109.0078,52.5313 Q109.6563,52.6875 110.2188,52.9844 L110.2188,55.7031 Q109.5938,55.125 109,54.8516 Q108.4063,54.5781 107.7813,54.5781 Q106.4375,54.5781 105.75,55.6484 Q105.0625,56.7188 105.0625,58.8125 Q105.0625,60.9063 105.75,61.9766 Q106.4375,63.0469 107.7813,63.0469 Q108.4063,63.0469 109,62.7734 Q109.5938,62.5 110.2188,61.9219 L110.2188,64.6406 Z "/><ellipse cx="132.75" cy="58.5" fill="#84BE84" rx="3" ry="3" style="stroke: #038048; stroke-width: 1.0;"/><text fill="#000000" font-family="sans-serif" font-size="12" lengthAdjust="spacingAndGlyphs" textLength="26" x="138.75" y="63.1543">Joke</text><line style="stroke: #A80036; stroke-width: 1.5;" x1="23.5" x2="236.5" y1="75" y2="75"/><rect fill="none" height="6" style="stroke: #C82930; stroke-width: 1.0;" width="6" x="30.5" y="83.9023"/><text fill="#000000" font-family="sans-serif" font-size="11" lengthAdjust="spacingAndGlyphs" textLength="66" x="42.5" y="89.2104">number: int</text><rect fill="none" height="6" style="stroke: #C82930; stroke-width: 1.0;" width="6" x="30.5" y="96.707"/><text fill="#000000" font-family="sans-serif" font-size="11" lengthAdjust="spacingAndGlyphs" textLength="84" x="42.5" y="102.0151">content: String</text><rect fill="none" height="6" style="stroke: #C82930; stroke-width: 1.0;" width="6" x="30.5" y="109.5117"/><text fill="#000000" font-family="sans-serif" font-size="11" lengthAdjust="spacingAndGlyphs" textLength="90" x="42.5" y="114.8198">rubrics: String[]</text><line style="stroke: #A80036; stroke-width: 1.5;" x1="23.5" x2="236.5" y1="121.4141" y2="121.4141"/><ellipse cx="33.5" cy="133.3164" fill="#84BE84" rx="3" ry="3" style="stroke: #038048; stroke-width: 1.0;"/><text fill="#000000" font-family="sans-serif" font-size="11" lengthAdjust="spacingAndGlyphs" textLength="93" x="42.5" y="135.6245">getNumber(): int</text><ellipse cx="33.5" cy="146.1211" fill="#84BE84" rx="3" ry="3" style="stroke: #038048; stroke-width: 1.0;"/><text fill="#000000" font-family="sans-serif" font-size="11" lengthAdjust="spacingAndGlyphs" textLength="168" x="42.5" y="148.4292">setNumber(number: int): void</text><ellipse cx="33.5" cy="158.9258" fill="#84BE84" rx="3" ry="3" style="stroke: #038048; stroke-width: 1.0;"/><text fill="#000000" font-family="sans-serif" font-size="11" lengthAdjust="spacingAndGlyphs" textLength="112" x="42.5" y="161.2339">getContent(): String</text><ellipse cx="33.5" cy="171.7305" fill="#84BE84" rx="3" ry="3" style="stroke: #038048; stroke-width: 1.0;"/><text fill="#000000" font-family="sans-serif" font-size="11" lengthAdjust="spacingAndGlyphs" textLength="185" x="42.5" y="174.0386">setContent(content: String): void</text><ellipse cx="33.5" cy="184.5352" fill="#84BE84" rx="3" ry="3" style="stroke: #038048; stroke-width: 1.0;"/><text fill="#000000" font-family="sans-serif" font-size="11" lengthAdjust="spacingAndGlyphs" textLength="118" x="42.5" y="186.8433">getRubrics(): String[]</text><ellipse cx="33.5" cy="197.3398" fill="#84BE84" rx="3" ry="3" style="stroke: #038048; stroke-width: 1.0;"/><text fill="#000000" font-family="sans-serif" font-size="11" lengthAdjust="spacingAndGlyphs" textLength="189" x="42.5" y="199.6479">setRubrics(rubrics: String[]): void</text><!--
@startuml ModelSpec
package de.fhro.inf.prg3.model {
    +class Joke {

        -number: int
        -content: String
        -rubrics: String[]

        +getNumber(): int
        +setNumber(number: int): void
        +getContent(): String
        +setContent(content: String): void
        +getRubrics(): String[]
        +setRubrics(rubrics: String[]): void
    }
}
@enduml

PlantUML version 1.2017.18(Fri Oct 06 18:56:32 CEST 2017)
(GPL source distribution)
Java Runtime: OpenJDK Runtime Environment
JVM: OpenJDK 64-Bit Server VM
Java Version: 1.8.0_144-b01
Operating System: Linux
OS Version: 4.13.11-1-ARCH
Default Encoding: UTF-8
Language: en
Country: US
--></g></svg>